<svg width="630" height="556" viewBox="0 0 630 556" fill="none" xmlns="http://www.w3.org/2000/svg">
<path d="M577.668 476.965L562.661 555.427L251.422 555.427L267.383 476.965L577.668 476.965Z" fill="#94C3FF"/>
<path d="M0 278.46C0.000967896 168.832 90.385 79.9599 201.877 79.959H346.305L331.19 158.421H201.877C134.454 158.422 79.798 212.164 79.797 278.46C79.797 344.757 134.453 398.502 201.877 398.502H282.43L267.346 476.961H201.877C90.3844 476.96 0 388.089 0 278.46Z" fill="#94C3FF"/>
<path d="M629.629 198.501C629.628 308.129 539.244 397.001 427.752 397.002H283.323L298.439 318.539H427.752C495.175 318.539 549.831 264.797 549.832 198.501C549.832 132.204 495.176 78.4594 427.752 78.4585H347.199L362.283 -0.000149328H427.752C539.245 0.000773196 629.629 88.8724 629.629 198.501Z" fill="#94C3FF"/>
</svg>
